<svg xmlns="http://www.w3.org/2000/svg" width="12" height="12" viewBox="0 0 12 12" fill="none">
  <path d="M7.736 1.56C8.0951 1.20103 8.58209 0.999418 9.08985 0.999512C9.5976 0.999606 10.0845 1.2014 10.4435 1.5605C10.8025 1.91961 11.0041 2.4066 11.004 2.91436C11.0039 3.42211 10.8021 3.90903 10.443 4.268L10.209 4.502L7.502 1.795L7.736 1.56ZM6.795 2.502L1.65 7.646C1.58055 7.71576 1.53324 7.80447 1.514 7.901L1.01 10.401C0.993554 10.4818 0.997349 10.5654 1.02104 10.6444C1.04474 10.7234 1.0876 10.7953 1.1458 10.8537C1.20401 10.9121 1.27575 10.9552 1.35465 10.9791C1.43354 11.0031 1.51714 11.0072 1.598 10.991L4.102 10.491C4.19865 10.4715 4.28736 10.4238 4.357 10.354L9.502 5.209L6.795 2.502Z" fill="black"/>
</svg>
