<svg width="1189" height="1155" viewBox="0 0 1189 1155" fill="none" xmlns="http://www.w3.org/2000/svg">
<path opacity="0.2" fill-rule="evenodd" clip-rule="evenodd" d="M770.59 62.6675C770.59 51.5873 774.992 40.9608 782.827 33.1259C790.662 25.291 801.288 20.8894 812.368 20.8894C823.449 20.8894 834.075 25.291 841.91 33.1259C849.745 40.9608 854.146 51.5873 854.146 62.6675V147.561C877.542 149.106 900.395 151.906 922.412 155.916L938.496 75.3681C940.668 64.4983 947.069 54.9365 956.291 48.7861C965.512 42.6357 976.8 40.4005 987.669 42.5722C998.539 44.744 1008.1 51.1447 1014.25 60.3664C1020.4 69.5881 1022.64 80.8754 1020.47 91.7451L1003.38 177.056C1024.89 184.618 1045.03 193.433 1063.54 203.418L1110.75 124.75C1116.45 115.243 1125.69 108.39 1136.45 105.699C1147.2 103.008 1158.58 104.698 1168.09 110.399C1177.59 116.1 1184.45 125.344 1187.14 136.097C1189.83 146.851 1188.14 158.233 1182.44 167.739L1131.55 252.34C1167.52 287.434 1188.37 329.463 1188.37 376.003C1188.37 509.359 1016.96 605.783 812.368 605.783C607.781 605.783 436.365 509.359 436.365 376.003C436.365 329.463 457.254 287.434 493.142 252.382L442.34 167.698C439.325 162.992 437.286 157.729 436.342 152.221C435.398 146.713 435.569 141.072 436.844 135.631C438.119 130.19 440.473 125.06 443.766 120.545C447.059 116.03 451.225 112.222 456.016 109.345C460.807 106.469 466.127 104.583 471.66 103.799C477.193 103.015 482.827 103.35 488.229 104.782C493.63 106.214 498.69 108.716 503.107 112.139C507.525 115.561 511.211 119.835 513.947 124.708L561.157 203.418C579.706 193.433 599.843 184.618 621.317 177.098L604.313 91.7033C602.142 80.8336 604.377 69.5463 610.527 60.3246C616.678 51.1029 626.239 44.7022 637.109 42.5305C647.979 40.3587 659.266 42.5939 668.488 48.7443C677.71 54.8947 684.11 64.4566 686.282 75.3263L702.367 155.833C724.933 151.787 747.711 149.025 770.59 147.561V62.6675ZM687.034 244.611C587.184 269.469 519.922 322.11 519.922 376.003C519.922 450.285 647.763 522.227 812.368 522.227C976.974 522.227 1104.82 450.285 1104.82 376.003C1104.82 322.11 1037.55 269.469 937.703 244.611C958.968 268.733 972.823 298.479 977.603 330.28C982.384 362.08 977.887 394.584 964.654 423.893C951.42 453.201 930.011 478.069 902.995 495.513C875.98 512.956 844.526 522.227 812.368 522.227C780.211 522.227 748.715 512.956 721.699 495.513C694.684 478.069 673.275 453.201 660.041 423.893C646.808 394.584 642.311 362.08 647.092 330.28C651.872 298.479 665.768 268.733 687.034 244.611Z" fill="#BB6B4F"/>
<path fill-rule="evenodd" clip-rule="evenodd" d="M770.591 543.116C965.194 543.116 1125.71 452.833 1125.71 334.225C1125.71 215.617 965.194 125.335 770.591 125.335C575.989 125.335 415.477 215.617 415.477 334.225C415.477 452.833 575.989 543.116 770.591 543.116ZM770.591 167.113C945.182 167.113 1083.93 245.154 1083.93 334.225C1083.93 423.296 945.182 501.338 770.591 501.338C596 501.338 457.255 423.296 457.255 334.225C457.255 245.154 596 167.113 770.591 167.113Z" fill="#BB6B4F"/>
<path d="M749.702 20.8891C749.702 15.3489 751.903 10.0357 755.82 6.11827C759.738 2.20081 765.051 0 770.591 0C776.131 0 781.444 2.20081 785.362 6.11827C789.279 10.0357 791.48 15.3489 791.48 20.8891V146.223C791.48 151.764 789.279 157.077 785.362 160.994C781.444 164.912 776.131 167.112 770.591 167.112C765.051 167.112 759.738 164.912 755.82 160.994C751.903 157.077 749.702 151.764 749.702 146.223V20.8891ZM917.232 37.6839C918.476 32.413 921.719 27.8315 926.276 24.9054C930.833 21.9793 936.349 20.9374 941.659 21.9995C946.97 23.0616 951.66 26.1447 954.741 30.5984C957.822 35.0522 959.053 40.5285 958.175 45.8724L937.286 150.318C936.041 155.588 932.799 160.17 928.242 163.096C923.684 166.022 918.169 167.064 912.859 166.002C907.548 164.94 902.858 161.857 899.776 157.403C896.695 152.949 895.464 147.473 896.343 142.129L917.232 37.6839ZM623.95 37.6839C622.706 32.413 619.463 27.8315 614.906 24.9054C610.349 21.9793 604.833 20.9374 599.523 21.9995C594.212 23.0616 589.522 26.1447 586.441 30.5984C583.359 35.0522 582.128 40.5285 583.007 45.8724L603.896 150.318C605.14 155.588 608.383 160.17 612.94 163.096C617.497 166.022 623.013 167.064 628.323 166.002C633.634 164.94 638.324 161.857 641.405 157.403C644.487 152.949 645.718 147.473 644.839 142.129L623.95 37.6839ZM454.289 93.7083C451.441 88.9549 446.822 85.5274 441.447 84.1797C436.072 82.8321 430.382 83.6749 425.629 86.5225C420.876 89.3701 417.448 93.9894 416.1 99.3641C414.753 104.739 415.596 110.429 418.443 115.182L481.11 219.628C483.958 224.381 488.577 227.808 493.952 229.156C499.327 230.504 505.017 229.661 509.77 226.813C514.524 223.966 517.951 219.346 519.299 213.972C520.646 208.597 519.804 202.907 516.956 198.154L454.289 93.7083ZM1086.89 93.7083C1088.3 91.3547 1090.16 89.3018 1092.37 87.6668C1094.57 86.0319 1097.07 84.847 1099.73 84.1797C1102.4 83.5125 1105.16 83.3759 1107.88 83.7779C1110.59 84.1799 1113.2 85.1125 1115.55 86.5225C1117.91 87.9325 1119.96 89.7923 1121.59 91.9956C1123.23 94.199 1124.41 96.7028 1125.08 99.3641C1125.75 102.025 1125.89 104.792 1125.48 107.506C1125.08 110.22 1124.15 112.829 1122.74 115.182L1060.07 219.628C1058.66 221.981 1056.8 224.034 1054.6 225.669C1052.39 227.304 1049.89 228.489 1047.23 229.156C1044.57 229.823 1041.8 229.96 1039.09 229.558C1036.37 229.156 1033.77 228.223 1031.41 226.813C1029.06 225.403 1027.01 223.544 1025.37 221.34C1023.74 219.137 1022.55 216.633 1021.88 213.972C1021.22 211.31 1021.08 208.544 1021.48 205.83C1021.88 203.116 1022.82 200.507 1024.23 198.154L1086.89 93.7083ZM895.925 313.336C895.925 346.577 882.72 378.456 859.216 401.961C835.711 425.465 803.832 438.67 770.591 438.67C737.35 438.67 705.471 425.465 681.966 401.961C658.461 378.456 645.257 346.577 645.257 313.336C645.257 280.095 658.461 248.216 681.966 224.711C705.471 201.206 737.35 188.002 770.591 188.002C803.832 188.002 835.711 201.206 859.216 224.711C882.72 248.216 895.925 280.095 895.925 313.336Z" fill="#BB6B4F"/>
<path d="M592.651 975.052C592.651 989.822 591.174 1007.55 588.22 1028.22C586.004 1048.9 581.204 1068.84 573.819 1088.04C566.434 1106.51 556.464 1122.38 543.909 1135.68C531.355 1148.23 514.738 1154.51 494.06 1154.51C466.736 1154.51 446.057 1144.54 432.026 1124.6C418.733 1104.66 409.132 1081.03 403.224 1053.7C397.316 1025.64 393.623 997.207 392.146 968.405C391.408 939.603 390.669 916.71 389.931 899.724C336.759 908.586 284.325 916.341 232.629 922.987C231.152 939.973 227.829 961.02 222.659 986.129C218.228 1011.24 210.843 1035.61 200.504 1059.24C190.904 1082.14 177.98 1102.07 161.733 1119.06C146.224 1136.05 127.023 1144.54 104.129 1144.54C86.4052 1144.54 72.3735 1138.26 62.0345 1125.71C52.4339 1112.41 45.0488 1096.91 39.8793 1079.18C34.7098 1061.46 31.3865 1043.36 29.9095 1024.9C29.171 1005.7 28.8017 989.822 28.8017 977.267C28.8017 935.172 32.125 893.816 38.7715 853.198C45.4181 811.842 53.1724 770.855 62.0345 730.237C66.4655 708.82 72.3735 683.711 79.7586 654.91C87.1437 626.108 96.0057 596.568 106.345 566.289C117.422 535.272 129.977 504.993 144.009 475.453C158.779 445.174 175.395 418.219 193.858 394.586C212.32 370.954 233.368 351.753 257 336.983C280.632 322.213 306.849 314.828 335.651 314.828C363.714 314.828 388.085 321.105 408.763 333.66C429.441 346.214 447.534 362.831 463.043 383.509C478.552 404.187 491.475 427.819 501.815 454.405C512.154 480.253 520.646 506.839 527.293 534.164C534.678 560.75 540.586 586.967 545.017 612.815C550.187 638.662 554.618 661.556 558.31 681.496C567.911 729.499 576.034 778.24 582.681 827.72C589.327 876.461 592.651 925.572 592.651 975.052ZM378.853 705.866C378.853 697.004 378.115 682.604 376.638 662.664C375.899 641.986 373.684 621.677 369.991 601.737C366.299 581.059 360.391 562.966 352.267 547.457C344.882 531.21 334.543 523.086 321.25 523.086C313.865 523.086 306.849 528.256 300.203 538.595C293.556 548.196 287.648 560.75 282.478 576.259C277.309 591.029 272.509 607.645 268.078 626.108C264.385 644.57 261.062 662.295 258.108 679.28C255.154 696.266 252.938 711.775 251.461 725.806C249.984 739.099 248.876 748.7 248.138 754.608C292.448 750.915 336.02 745.377 378.853 737.991V705.866ZM847.435 365.785C847.435 376.124 844.481 385.355 838.573 393.479C833.404 401.602 826.388 408.987 817.526 415.634C808.664 421.542 799.063 426.342 788.724 430.035C778.385 432.989 768.784 434.466 759.922 434.466C745.152 434.466 732.228 430.773 721.151 423.388C710.073 416.003 704.534 404.556 704.534 389.048C704.534 377.97 707.119 368.369 712.289 360.246C718.197 351.384 725.213 344.368 733.336 339.198C741.46 333.29 750.691 328.859 761.03 325.905C771.369 322.951 781.339 321.474 790.94 321.474C804.971 321.474 817.895 324.798 829.711 331.444C841.527 338.091 847.435 349.538 847.435 365.785ZM856.297 742.422C856.297 752.762 856.297 763.839 856.297 775.655C856.297 786.733 855.928 797.441 855.189 807.78C854.451 820.335 854.082 837.32 854.082 858.737C854.082 879.415 853.343 901.94 851.866 926.31C850.389 950.681 847.804 975.421 844.112 1000.53C841.158 1025.64 835.988 1048.53 828.603 1069.21C821.218 1089.89 811.248 1106.88 798.694 1120.17C786.878 1132.72 771.738 1139.37 753.276 1140.11C739.244 1140.85 727.428 1135.31 717.827 1123.49C708.227 1111.68 700.103 1096.54 693.457 1078.07C687.549 1058.87 683.118 1037.82 680.164 1014.93C677.21 991.299 674.994 968.774 673.517 947.358C672.04 925.203 671.302 904.894 671.302 886.431C671.302 867.968 671.302 854.306 671.302 845.444C671.302 833.628 671.302 817.012 671.302 795.595C671.302 773.44 672.04 749.808 673.517 724.698C674.994 699.589 677.579 674.111 681.271 648.263C685.702 622.415 691.611 598.783 698.996 577.366C707.119 555.95 717.458 538.595 730.013 525.302C742.567 512.009 758.445 505.362 777.646 505.362C797.586 505.362 812.725 515.332 823.065 535.272C833.404 555.211 841.158 578.474 846.327 605.06C851.497 631.647 854.451 658.233 855.189 684.819C855.928 710.667 856.297 729.868 856.297 742.422Z" fill="#BB6B4F"/>
</svg>
