<svg xmlns="http://www.w3.org/2000/svg" width="249" height="185" viewBox="0 0 249 185" fill="none">
  <path d="M12 34.0197L114.418 12.2512C115.9 11.9367 117.429 11.9173 118.918 12.1942C120.406 12.471 121.826 13.0386 123.096 13.8645L169.756 44.1665C172.319 45.831 175.438 46.4093 178.427 45.7741L201.942 40.7727C204.931 40.1374 208.05 40.7153 210.613 42.3793C213.176 44.0433 214.973 46.6572 215.609 49.6461L219.205 66.5573C219.84 69.5464 219.262 72.6654 217.598 75.2284C215.934 77.7914 213.32 79.5885 210.331 80.2246L169.911 88.8156C168.43 89.131 166.902 89.1513 165.413 88.8754C163.924 88.5996 162.504 88.033 161.234 87.2081L114.574 56.9061C113.304 56.0812 111.884 55.5146 110.395 55.2387C108.906 54.9629 107.377 54.9832 105.896 55.2985L88.0228 59.1014M237.176 151.102L134.758 172.865C133.277 173.18 131.748 173.2 130.259 172.925C128.77 172.649 127.35 172.082 126.08 171.257L79.4203 140.95C78.15 140.126 76.7299 139.56 75.2409 139.285C73.752 139.01 72.2235 139.032 70.7428 139.348L47.2342 144.343C44.2451 144.979 41.1261 144.401 38.5631 142.737C36.0001 141.073 34.203 138.459 33.5669 135.47L29.9714 118.559C29.3361 115.57 29.914 112.451 31.578 109.888C33.2421 107.325 35.8559 105.527 38.8448 104.891L79.2647 96.3061C80.7454 95.99 82.2739 95.9687 83.7628 96.2436C85.2518 96.5184 86.6719 97.084 87.9422 97.908L134.602 128.216C135.872 129.041 137.292 129.607 138.781 129.883C140.27 130.159 141.799 130.139 143.28 129.823L161.153 126.02" stroke="#eaa134" stroke-width="23.0477" stroke-linecap="round"/>
</svg>
